<svg xmlns="http://www.w3.org/2000/svg" viewBox="0 0 100 100">
  <rect width="100" height="100" rx="20" fill="#15803d"/>
  <defs>
    <rect id="tooth" x="42" y="6" width="16" height="14" rx="2" fill="#22c55e"/>
  </defs>
  <use href="#tooth"/>
  <use href="#tooth" transform="rotate(45 50 50)"/>
  <use href="#tooth" transform="rotate(90 50 50)"/>
  <use href="#tooth" transform="rotate(135 50 50)"/>
  <use href="#tooth" transform="rotate(180 50 50)"/>
  <use href="#tooth" transform="rotate(225 50 50)"/>
  <use href="#tooth" transform="rotate(270 50 50)"/>
  <use href="#tooth" transform="rotate(315 50 50)"/>
  <circle cx="50" cy="50" r="32" fill="#22c55e"/>
  <circle cx="50" cy="50" r="22" fill="#16a34a"/>
  <circle cx="50" cy="50" r="12" fill="#15803d"/>
  <path d="M50 50 Q50 36 48 28" fill="none" stroke="#bbf7d0" stroke-width="3.5" stroke-linecap="round"/>
  <path d="M44 36 Q38 33 35 29 Q40 32 44 34Z" fill="#bbf7d0"/>
  <path d="M49 31 Q55 27 57 23 Q53 29 49 29Z" fill="#bbf7d0"/>
</svg>