<svg xmlns="http://www.w3.org/2000/svg" viewBox="0 0 100 100">
  <rect width="100" height="100" rx="20" fill="#1e293b"/>
  <g fill="none" stroke="#22c55e" stroke-width="6" stroke-linejoin="round">
    <circle cx="50" cy="50" r="40"/>
    <rect x="36" y="2" width="28" height="18" rx="4"/>
    <rect x="36" y="2" width="28" height="18" rx="4" transform="rotate(45 50 50)"/>
    <rect x="36" y="2" width="28" height="18" rx="4" transform="rotate(90 50 50)"/>
    <rect x="36" y="2" width="28" height="18" rx="4" transform="rotate(135 50 50)"/>
    <rect x="36" y="2" width="28" height="18" rx="4" transform="rotate(180 50 50)"/>
    <rect x="36" y="2" width="28" height="18" rx="4" transform="rotate(225 50 50)"/>
    <rect x="36" y="2" width="28" height="18" rx="4" transform="rotate(270 50 50)"/>
    <rect x="36" y="2" width="28" height="18" rx="4" transform="rotate(315 50 50)"/>
  </g>
  <circle cx="50" cy="50" r="16" fill="#1e293b" stroke="#22c55e" stroke-width="6"/>
</svg>