<svg xmlns="http://www.w3.org/2000/svg" viewBox="0 0 100 100">
  <rect width="100" height="100" rx="20" fill="#15803d"/>
  <defs>
    <rect id="tooth" x="40" y="2" width="20" height="18" rx="2" fill="none" stroke="#22c55e" stroke-width="5"/>
  </defs>
  <use href="#tooth"/><use href="#tooth" transform="rotate(45 50 50)"/>
  <use href="#tooth" transform="rotate(90 50 50)"/><use href="#tooth" transform="rotate(135 50 50)"/>
  <use href="#tooth" transform="rotate(180 50 50)"/><use href="#tooth" transform="rotate(225 50 50)"/>
  <use href="#tooth" transform="rotate(270 50 50)"/><use href="#tooth" transform="rotate(315 50 50)"/>
  <circle cx="50" cy="50" r="38" fill="none" stroke="#22c55e" stroke-width="5"/>
  <circle cx="50" cy="50" r="20" fill="none" stroke="#22c55e" stroke-width="4"/>
  <circle cx="50" cy="50" r="12" fill="#15803d" stroke="#22c55e" stroke-width="4"/>
  <path d="M50 50 Q50 36 48 28" fill="none" stroke="#86efac" stroke-width="3" stroke-linecap="round"/>
  <path d="M44 36 Q38 33 35 29 Q40 32 44 34Z" fill="#86efac"/>
  <path d="M49 31 Q55 27 57 23 Q53 29 49 29Z" fill="#86efac"/>
</svg>