<svg xmlns="http://www.w3.org/2000/svg" viewBox="0 0 100 100">
  <rect width="100" height="100" rx="20" fill="#15803d"/>
  <g fill="#fff" stroke="#22c55e" stroke-width="5" stroke-linejoin="round">
    <rect x="36" y="1" width="28" height="20" rx="3"/>
    <rect x="36" y="1" width="28" height="20" rx="3" transform="rotate(45 50 50)"/>
    <rect x="36" y="1" width="28" height="20" rx="3" transform="rotate(90 50 50)"/>
    <rect x="36" y="1" width="28" height="20" rx="3" transform="rotate(135 50 50)"/>
    <rect x="36" y="1" width="28" height="20" rx="3" transform="rotate(180 50 50)"/>
    <rect x="36" y="1" width="28" height="20" rx="3" transform="rotate(225 50 50)"/>
    <rect x="36" y="1" width="28" height="20" rx="3" transform="rotate(270 50 50)"/>
    <rect x="36" y="1" width="28" height="20" rx="3" transform="rotate(315 50 50)"/>
  </g>
  <circle cx="50" cy="50" r="40" fill="#15803d" stroke="#22c55e" stroke-width="5"/>
  <circle cx="50" cy="50" r="18" fill="#15803d"/>
</svg>